<?xml version="1.0" encoding="UTF-8"?>
<svg width="220px" height="220px" viewBox="0 0 220 220" version="1.1" xmlns="http://www.w3.org/2000/svg" xmlns:xlink="http://www.w3.org/1999/xlink">
    <!-- Generator: Sketch 44.1 (41455) - http://www.bohemiancoding.com/sketch -->
    <title>Combined Shape</title>
    <desc>Created with Sketch.</desc>
    <defs></defs>
    <g id="Page-1" stroke="none" stroke-width="1" fill="none" fill-rule="evenodd">
        <g id="moby" transform="translate(-10.000000, -10.000000)" fill="#FFFFFF">
            <path d="M120,230 C59.2486775,230 10,180.751322 10,120 C10,59.2486775 59.2486775,10 120,10 C180.751322,10 230,59.2486775 230,120 C230,180.751322 180.751322,230 120,230 Z M24.1327939,161.991775 L24.1327939,161.991775 C37.3504767,192.124716 64.3586249,214.83485 97.1716151,222.136555 C104.254334,209.866373 110.646916,196.881676 116.323519,183.198817 C136.0405,183.743457 178.760625,183.198817 200.120688,141.806206 C200.668382,140.716927 201.763769,138.538368 205.597627,130.368774 L207.788403,126.011657 L195.739136,118.931342 C182.594482,110.217108 151.923623,106.94927 128.372785,111.306387 C125.634315,88.9761624 113.037355,69.9137756 90.5819049,52.4853076 L77.9849449,43.7710736 L69.2218423,56.8424246 C58.267964,73.1816133 52.7910249,96.6011171 54.4341066,118.386702 C54.9818005,126.011657 57.7202701,140.172287 65.9356788,152.154359 C58.1243563,156.297165 43.8762036,161.91711 24.1327939,161.991775 Z" id="Combined-Shape"></path>
        </g>
    </g>
</svg>